# xmcd
#
# Track frame offsets: 
#        150
#        12197
#        26657
#        38734
#        51319
#        61976
#        76376
#        89049
#        100266
#        113422
#        126300
#        146380
#        152159
#        157864
#        162813
#        169222
#        175622
#        181611
#        185669
#        188788
#        195186
#
# Disc length: 2835 seconds
#
# Revision: 0
# Processed by: cddbd v1.5.2PL0 Copyright (c) Steve Scherf et al.
# Submitted via: ExactAudioCopy v0.99pb4
#
DISCID=050b1115
DTITLE=Australia - Down Under Country
DYEAR=1900
DGENRE=Australian Country
TTITLE0=Coo-ee Call
TTITLE1=Waltzing Matilda
TTITLE2=The Pub With No Beer
TTITLE3=Tie Me Kangaroo Down Sport
TTITLE4=Does Your Chewing Gum Lose Its Flavor on the Bed Post Overnigh
TTITLE4=t
TTITLE5=My Boomerang Won't Come Back
TTITLE6=I've Been Everywhere
TTITLE7=From New South Wales to Nashville
TTITLE8=Wanted
TTITLE9=Down Under Country
TTITLE10=Australia
TTITLE11=Shearer's Jamboree
TTITLE12=Boomerang
TTITLE13=On the Road to Gundagal
TTITLE14=Yarrawonga
TTITLE15=Click Go the Shears
TTITLE16=Botany Bay
TTITLE17=Wild Rover No More
TTITLE18=Smile, Smile, Smile
TTITLE19=It's a Long Way to Tipperary
TTITLE20=What's Goin' On Down Under
EXTD=
EXTT0=
EXTT1=
EXTT2=
EXTT3=
EXTT4=
EXTT5=
EXTT6=
EXTT7=
EXTT8=
EXTT9=
EXTT10=
EXTT11=
EXTT12=
EXTT13=
EXTT14=
EXTT15=
EXTT16=
EXTT17=
EXTT18=
EXTT19=
EXTT20=
PLAYORDER=
